<svg width="20" height="20" viewBox="0 0 20 20" fill="none" xmlns="http://www.w3.org/2000/svg">
<g clip-path="url(#clip0_297_1295)">
<path d="M8.3335 3.64154V10.8333H6.66683V3.37642L6.70177 3.25959C6.80459 2.91579 7.07668 2.33114 7.58755 1.81951C8.11769 1.28859 8.91197 0.833252 10.0002 0.833252C11.0884 0.833252 11.8826 1.28859 12.4128 1.81951C12.9236 2.33114 13.1957 2.91579 13.2986 3.25959L13.3335 3.37642V5.3637H11.6668V3.64154C11.6021 3.48577 11.4636 3.22767 11.2334 2.99715C10.9649 2.72828 10.5786 2.49992 10.0002 2.49992C9.42169 2.49992 9.03541 2.72828 8.76694 2.99715C8.53675 3.22767 8.39818 3.48577 8.3335 3.64154ZM3.37667 6.66658H5.36394V8.33325H3.64178C3.48602 8.39794 3.22792 8.53651 2.99739 8.76669C2.72852 9.03517 2.50016 9.42144 2.50016 9.99992C2.50016 10.5784 2.72852 10.9647 2.99739 11.2331C3.22792 11.4633 3.48602 11.6019 3.64178 11.6666H10.8335V13.3333H3.37667L3.25984 13.2983C2.91603 13.1955 2.33139 12.9234 1.81975 12.4125C1.28883 11.8824 0.833496 11.0881 0.833496 9.99992C0.833496 8.91173 1.28883 8.11745 1.81975 7.58731C2.33139 7.07643 2.91603 6.80435 3.25984 6.70153L3.37667 6.66658ZM9.16683 6.66658L16.6237 6.66658L16.7405 6.70153C17.0843 6.80435 17.6689 7.07643 18.1806 7.58731C18.7115 8.11745 19.1668 8.91173 19.1668 9.99992C19.1668 11.0881 18.7115 11.8824 18.1806 12.4125C17.6689 12.9234 17.0843 13.1955 16.7405 13.2983L16.6237 13.3333H14.6364V11.6666H16.3585C16.5143 11.6019 16.7724 11.4633 17.0029 11.2331C17.2718 10.9647 17.5002 10.5784 17.5002 9.99992C17.5002 9.42144 17.2718 9.03517 17.0029 8.76669C16.7724 8.53651 16.5143 8.39794 16.3585 8.33325H9.16683V6.66658ZM13.3335 9.16658V16.6234L13.2986 16.7402C13.1957 17.084 12.9236 17.6687 12.4128 18.1803C11.8826 18.7112 11.0884 19.1666 10.0002 19.1666C8.91197 19.1666 8.11769 18.7112 7.58755 18.1803C7.07668 17.6687 6.80459 17.084 6.70177 16.7402L6.66683 16.6234V14.6361H8.3335V16.3583C8.39818 16.5141 8.53675 16.7722 8.76694 17.0027C9.03541 17.2716 9.42169 17.4999 10.0002 17.4999C10.5786 17.4999 10.9649 17.2716 11.2334 17.0027C11.4636 16.7722 11.6021 16.5141 11.6668 16.3583V9.16658H13.3335Z" fill="white"/>
<path d="M8.3335 3.64154V10.8333H6.66683V3.37642L6.70177 3.25959C6.80459 2.91579 7.07668 2.33114 7.58755 1.81951C8.11769 1.28859 8.91197 0.833252 10.0002 0.833252C11.0884 0.833252 11.8826 1.28859 12.4128 1.81951C12.9236 2.33114 13.1957 2.91579 13.2986 3.25959L13.3335 3.37642V5.3637H11.6668V3.64154C11.6021 3.48577 11.4636 3.22767 11.2334 2.99715C10.9649 2.72828 10.5786 2.49992 10.0002 2.49992C9.42169 2.49992 9.03541 2.72828 8.76694 2.99715C8.53675 3.22767 8.39818 3.48577 8.3335 3.64154ZM3.37667 6.66658H5.36394V8.33325H3.64178C3.48602 8.39794 3.22792 8.53651 2.99739 8.76669C2.72852 9.03517 2.50016 9.42144 2.50016 9.99992C2.50016 10.5784 2.72852 10.9647 2.99739 11.2331C3.22792 11.4633 3.48602 11.6019 3.64178 11.6666H10.8335V13.3333H3.37667L3.25984 13.2983C2.91603 13.1955 2.33139 12.9234 1.81975 12.4125C1.28883 11.8824 0.833496 11.0881 0.833496 9.99992C0.833496 8.91173 1.28883 8.11745 1.81975 7.58731C2.33139 7.07643 2.91603 6.80435 3.25984 6.70153L3.37667 6.66658ZM9.16683 6.66658L16.6237 6.66658L16.7405 6.70153C17.0843 6.80435 17.6689 7.07643 18.1806 7.58731C18.7115 8.11745 19.1668 8.91173 19.1668 9.99992C19.1668 11.0881 18.7115 11.8824 18.1806 12.4125C17.6689 12.9234 17.0843 13.1955 16.7405 13.2983L16.6237 13.3333H14.6364V11.6666H16.3585C16.5143 11.6019 16.7724 11.4633 17.0029 11.2331C17.2718 10.9647 17.5002 10.5784 17.5002 9.99992C17.5002 9.42144 17.2718 9.03517 17.0029 8.76669C16.7724 8.53651 16.5143 8.39794 16.3585 8.33325H9.16683V6.66658ZM13.3335 9.16658V16.6234L13.2986 16.7402C13.1957 17.084 12.9236 17.6687 12.4128 18.1803C11.8826 18.7112 11.0884 19.1666 10.0002 19.1666C8.91197 19.1666 8.11769 18.7112 7.58755 18.1803C7.07668 17.6687 6.80459 17.084 6.70177 16.7402L6.66683 16.6234V14.6361H8.3335V16.3583C8.39818 16.5141 8.53675 16.7722 8.76694 17.0027C9.03541 17.2716 9.42169 17.4999 10.0002 17.4999C10.5786 17.4999 10.9649 17.2716 11.2334 17.0027C11.4636 16.7722 11.6021 16.5141 11.6668 16.3583V9.16658H13.3335Z" fill="url(#paint0_linear_297_1295)"/>
</g>
<defs>
<linearGradient id="paint0_linear_297_1295" x1="0.833496" y1="9.99992" x2="19.1668" y2="9.99992" gradientUnits="userSpaceOnUse">
<stop stop-color="#926BFF"/>
<stop offset="1" stop-color="#618AFF"/>
</linearGradient>
<clipPath id="clip0_297_1295">
<rect width="20" height="20" fill="white"/>
</clipPath>
</defs>
</svg>
