<svg width="40" height="40" viewBox="0 0 40 40" fill="none" xmlns="http://www.w3.org/2000/svg">
<path d="M20 37.5C17.6302 37.5 15.363 37.0443 13.1982 36.1328C11.1019 35.2441 9.24479 33.9909 7.62695 32.373C6.00911 30.7552 4.75586 28.8981 3.86719 26.8018C2.95573 24.637 2.5 22.3698 2.5 20C2.5 17.6302 2.95573 15.363 3.86719 13.1982C4.75586 11.1019 6.00911 9.24479 7.62695 7.62695C9.24479 6.00911 11.1019 4.75586 13.1982 3.86719C15.363 2.95573 17.6302 2.5 20 2.5C22.3698 2.5 24.637 2.95573 26.8018 3.86719C28.8981 4.75586 30.7552 6.00911 32.373 7.62695C33.9909 9.24479 35.2441 11.1019 36.1328 13.1982C37.0443 15.363 37.5 17.6302 37.5 20C37.5 22.3698 37.0443 24.637 36.1328 26.8018C35.2441 28.8981 33.9909 30.7552 32.373 32.373C30.7552 33.9909 28.8981 35.2441 26.8018 36.1328C24.637 37.0443 22.3698 37.5 20 37.5ZM28.8525 18.0518H18.9062C18.6784 18.0518 18.479 18.1372 18.3081 18.3081C18.1372 18.479 18.0518 18.6784 18.0518 18.9062V21.0938C18.0518 21.3216 18.1372 21.521 18.3081 21.6919C18.479 21.8628 18.6784 21.9482 18.9062 21.9482H24.9561C25.2067 21.9482 25.4175 22.0337 25.5884 22.2046C25.7593 22.3755 25.8447 22.5749 25.8447 22.8027V23.2471C25.8447 23.9535 25.5884 24.563 25.0757 25.0757C24.563 25.5884 23.9535 25.8447 23.2471 25.8447H15.0439C14.7933 25.8447 14.5825 25.7593 14.4116 25.5884C14.2407 25.4175 14.1553 25.2067 14.1553 24.9561V16.7529C14.1553 16.0465 14.4116 15.437 14.9243 14.9243C15.437 14.4116 16.0465 14.1553 16.7529 14.1553H28.8525C29.1032 14.1553 29.3083 14.0755 29.4678 13.916C29.6273 13.7565 29.707 13.5514 29.707 13.3008V11.1475C29.707 10.8968 29.6273 10.6917 29.4678 10.5322C29.3083 10.3727 29.1032 10.293 28.8525 10.293H16.7529C15.887 10.293 15.061 10.4525 14.2749 10.7715C13.4888 11.0905 12.7881 11.5576 12.1729 12.1729C11.5576 12.7881 11.0905 13.4888 10.7715 14.2749C10.4525 15.061 10.293 15.887 10.293 16.7529V28.8525C10.293 29.1032 10.3727 29.3083 10.5322 29.4678C10.6917 29.6273 10.8968 29.707 11.1475 29.707H23.8965C24.9447 29.707 25.9188 29.4507 26.8188 28.938C27.7189 28.4253 28.4253 27.7189 28.938 26.8188C29.4507 25.9188 29.707 24.9447 29.707 23.8965V18.9062C29.707 18.6784 29.6273 18.479 29.4678 18.3081C29.3083 18.1372 29.1032 18.0518 28.8525 18.0518Z" fill="white"/>
</svg>
