<svg width="40" height="40" viewBox="0 0 40 40" fill="none" xmlns="http://www.w3.org/2000/svg">
<path d="M19.9844 2.98071C10.3242 2.97681 2.5 10.7971 2.5 20.4495C2.5 28.0823 7.39453 34.5706 14.2109 36.9534C15.1289 37.1838 14.9883 36.5315 14.9883 36.0862V33.0588C9.6875 33.6799 9.47266 30.1721 9.11719 29.5862C8.39844 28.3596 6.69922 28.0471 7.20703 27.4612C8.41406 26.8401 9.64453 27.6174 11.0703 29.7229C12.1016 31.2502 14.1133 30.9924 15.1328 30.7385C15.3555 29.8206 15.832 29.0002 16.4883 28.3635C10.9961 27.3792 8.70703 24.0276 8.70703 20.0432C8.70703 18.1096 9.34375 16.3323 10.5938 14.8987C9.79688 12.5354 10.668 10.512 10.7852 10.2112C13.0547 10.0081 15.4141 11.8362 15.5977 11.9807C16.8867 11.6331 18.3594 11.4495 20.0078 11.4495C21.6641 11.4495 23.1406 11.6409 24.4414 11.9924C24.8828 11.6565 27.0703 10.0862 29.1797 10.2776C29.293 10.5784 30.1445 12.5549 29.3945 14.887C30.6602 16.3245 31.3047 18.1174 31.3047 20.0549C31.3047 24.0471 29 27.4026 23.4922 28.3713C23.9639 28.8353 24.3385 29.3886 24.5941 29.9989C24.8496 30.6092 24.981 31.2644 24.9805 31.926V36.3206C25.0117 36.6721 24.9805 37.0198 25.5664 37.0198C32.4844 34.6877 37.4648 28.1526 37.4648 20.4534C37.4648 10.7971 29.6367 2.98071 19.9844 2.98071Z" fill="white"/>
</svg>
