<svg width="45" height="44" viewBox="0 0 45 44" fill="none" xmlns="http://www.w3.org/2000/svg">
<path d="M22.5003 1.54968L40.2107 11.7748V32.2251L22.5003 42.4503L4.78979 32.2251V11.7748L22.5003 1.54968ZM22.5003 5.78359L10.2898 12.8333L22.5003 19.883L34.7107 12.8333L22.5003 5.78359ZM36.5441 16.0087L24.3336 23.0584V37.1579L36.5441 30.1082V16.0087ZM20.6669 37.1579V23.0584L8.45646 16.0087V30.1082L20.6669 37.1579ZM24.3336 9.16663V16.5H20.6669V9.16663H24.3336ZM18.6536 26.3377L12.3027 30.0043L10.4694 26.8289L16.8203 23.1623L18.6536 26.3377ZM28.1799 23.1623L34.5308 26.8289L32.6974 30.0043L26.3466 26.3377L28.1799 23.1623Z" fill="url(#paint0_linear_297_1284)"/>
<defs>
<linearGradient id="paint0_linear_297_1284" x1="4.78979" y1="22" x2="40.2107" y2="22" gradientUnits="userSpaceOnUse">
<stop stop-color="#926BFF"/>
<stop offset="1" stop-color="#618AFF"/>
</linearGradient>
</defs>
</svg>
