<svg width="17" height="16" viewBox="0 0 17 16" fill="none" xmlns="http://www.w3.org/2000/svg">
<path d="M8.90817 2.65511C8.90817 1.36645 9.95284 0.321777 11.2415 0.321777H11.9415V1.02178C11.9415 2.31044 10.8968 3.35511 9.60817 3.35511H8.90817V2.65511ZM11.8733 3.37129C10.9729 3.30593 10.178 3.60434 9.6494 3.80281L9.64854 3.80313C9.57782 3.82969 9.52065 3.85232 9.46917 3.8727C9.38958 3.90421 9.32348 3.93039 9.24144 3.95754C9.12359 3.99654 9.04937 4.0089 9.00022 4.0089C8.86426 4.0089 8.72799 3.95657 8.46681 3.85627C8.42101 3.83868 8.37136 3.81961 8.3172 3.79909C7.80466 3.60493 7.16793 3.37782 6.46355 3.40266C5.013 3.45384 3.69799 4.2508 2.95333 5.48743C2.04881 6.98668 2.0487 8.80696 2.50668 10.438C2.96545 12.0718 3.90909 13.6164 5.04444 14.6323C5.49054 15.0314 6.07603 15.3822 6.80064 15.3611L6.8095 15.3608C7.32097 15.3391 7.78491 15.1723 8.14495 15.0428C8.16668 15.035 8.18803 15.0273 8.20899 15.0198C8.61008 14.8763 8.90062 14.7831 9.19949 14.7831C9.49329 14.7831 9.77799 14.8801 10.193 15.0288L10.2182 15.0378C10.5929 15.1722 11.0894 15.3502 11.6454 15.3383C12.8317 15.3182 13.7002 14.495 14.2806 13.6755C14.8758 12.8351 15.2857 11.8373 15.5281 11.1435L15.7373 10.5448L15.1497 10.306C14.2191 9.92772 13.6079 9.07969 13.5966 8.09221C13.5866 7.25914 14.0955 6.45923 14.8648 6.00279L15.4897 5.63204L15.0667 5.04129C14.301 3.97206 13.0814 3.45055 11.8733 3.37129Z" fill="white"/>
</svg>
