<svg width="20" height="20" viewBox="0 0 20 20" fill="none" xmlns="http://www.w3.org/2000/svg">
<path d="M14.5837 2.91667C13.2029 2.91667 12.0837 4.03595 12.0837 5.41667C12.0837 6.79738 13.2029 7.91667 14.5837 7.91667C15.9644 7.91667 17.0837 6.79738 17.0837 5.41667C17.0837 4.03595 15.9644 2.91667 14.5837 2.91667ZM10.417 5.41667C10.417 3.11548 12.2825 1.25 14.5837 1.25C16.8848 1.25 18.7503 3.11548 18.7503 5.41667C18.7503 7.71785 16.8848 9.58333 14.5837 9.58333C12.2825 9.58333 10.417 7.71785 10.417 5.41667ZM1.66699 1.66667H9.16699V9.16667H1.66699V1.66667ZM3.33366 3.33333V7.5H7.50033V3.33333H3.33366ZM1.66699 10.8333H9.16699V18.3333H1.66699V10.8333ZM3.33366 12.5V16.6667H7.50033V12.5H3.33366ZM10.8337 10.8333H18.3337V18.3333H10.8337V10.8333ZM16.667 12.5H12.5003V16.6667H16.667V12.5Z" fill="white"/>
</svg>
