<svg width="20" height="20" viewBox="0 0 20 20" fill="none" xmlns="http://www.w3.org/2000/svg">
<path d="M6.6665 3.33325C6.6665 1.95254 7.78579 0.833252 9.1665 0.833252C10.5472 0.833252 11.6665 1.95254 11.6665 3.33325H16.6665V8.33325C18.0472 8.33325 19.1665 9.45254 19.1665 10.8333C19.1665 12.214 18.0472 13.3333 16.6665 13.3333V18.3333H11.331L11.2287 17.6179C11.0844 16.6091 10.2153 15.8333 9.1665 15.8333C8.11767 15.8333 7.24861 16.6091 7.10431 17.6179L7.00199 18.3333H1.6665V12.9978L2.38184 12.8954C3.39067 12.7511 4.1665 11.8821 4.1665 10.8333C4.1665 9.78442 3.39067 8.91536 2.38184 8.77106L1.6665 8.66874V3.33325H6.6665ZM9.1665 2.49992C8.70627 2.49992 8.33317 2.87301 8.33317 3.33325V4.99992H3.33317V7.29686C4.78982 7.8118 5.83317 9.20014 5.83317 10.8333C5.83317 12.4664 4.78982 13.8547 3.33317 14.3696V16.6666H5.63011C6.14505 15.2099 7.53339 14.1666 9.1665 14.1666C10.7996 14.1666 12.188 15.2099 12.7029 16.6666H14.9998V11.6666H16.6665C17.1267 11.6666 17.4998 11.2935 17.4998 10.8333C17.4998 10.373 17.1267 9.99992 16.6665 9.99992H14.9998V4.99992H9.99984V3.33325C9.99984 2.87301 9.62674 2.49992 9.1665 2.49992Z" fill="white"/>
</svg>
