<svg width="81" height="80" viewBox="0 0 81 80" fill="none" xmlns="http://www.w3.org/2000/svg">
<g clip-path="url(#clip0_297_1255)">
<path opacity="0.9" d="M55.7637 10.522C56.9491 8.15177 59.9118 7.26318 62.2822 8.74469C64.6527 10.2263 65.5421 13.1896 64.0605 15.5601C63.1535 17.374 61.2053 18.3181 59.2783 17.9986L55.4541 24.5552C63.613 29.1202 69.0975 37.856 69.0977 47.858V64.4517C69.394 68.8964 65.8382 72.1567 61.3936 72.1568H17.5381C13.3897 72.1567 9.83398 68.6001 9.83398 64.4517V47.858C9.83412 38.2534 14.8913 29.8162 22.5176 25.1187L18.4111 18.0074C16.4884 18.3011 14.5131 17.3575 13.3896 15.5601C11.9081 13.1896 12.7974 10.2263 15.168 8.74469C17.5385 7.26313 20.5018 8.15152 21.9834 10.522C23.1541 12.3951 22.843 14.6373 21.4922 16.2271L25.668 23.4586C28.8044 22.0674 32.2639 21.2644 35.9102 21.19H43.0215C46.3071 21.2571 49.4407 21.9165 52.3232 23.064L56.2871 16.2672C54.9078 14.6751 54.5833 12.4106 55.7637 10.522ZM43.3184 26.8199C40.6515 26.5236 38.5766 26.5236 36.2061 26.8199C24.6498 27.1163 15.4639 36.5985 15.4639 48.1548V64.7486C15.464 65.9338 16.6497 67.1187 17.835 67.1187H61.6895C62.8747 67.1187 64.0605 65.9338 64.0605 64.7486V48.1548C64.0605 36.5986 54.8745 27.1165 43.3184 26.8199ZM3.90723 39.858C5.68497 39.858 7.16673 41.3391 7.16699 43.1168V54.0806C7.16699 55.8585 5.68513 57.3404 3.90723 57.3404C2.12951 57.3402 0.648438 55.8584 0.648438 54.0806V43.1168C0.944873 41.3392 2.12973 39.8582 3.90723 39.858ZM75.0234 39.858C76.8012 39.858 78.2829 41.3391 78.2832 43.1168V54.0806C78.2832 55.8585 76.8013 57.3404 75.0234 57.3404C73.2457 57.3401 71.7646 55.8584 71.7646 54.0806V43.1168C71.7649 41.3392 73.2459 39.8582 75.0234 39.858ZM52.3555 39.7037C57.0964 39.7037 60.949 43.5556 60.9492 48.2964C60.9492 53.0375 57.0966 56.8902 52.3555 56.8902H26.5762C21.8351 56.8902 18.2793 53.0375 18.2793 48.2964C18.2795 43.5556 22.1315 39.7037 26.5762 39.7037H52.3555ZM27.4648 43.8521C25.0943 43.8521 23.3164 45.63 23.3164 48.0005C23.3164 50.3711 25.0943 52.1489 27.4648 52.149C29.8354 52.149 31.6133 50.3711 31.6133 48.0005C31.6133 45.63 29.8354 43.8521 27.4648 43.8521ZM51.4668 43.8521C49.0963 43.8521 47.3184 45.63 47.3184 48.0005C47.3184 50.3711 49.0963 52.149 51.4668 52.149C53.8373 52.1489 55.6152 50.371 55.6152 48.0005C55.6152 45.6301 53.8373 43.8522 51.4668 43.8521Z" fill="url(#paint0_linear_297_1255)"/>
</g>
<defs>
<linearGradient id="paint0_linear_297_1255" x1="0.648438" y1="40.0884" x2="78.2832" y2="40.0884" gradientUnits="userSpaceOnUse">
<stop stop-color="#A280FF"/>
<stop offset="1" stop-color="#608AFF"/>
</linearGradient>
<clipPath id="clip0_297_1255">
<rect width="80" height="80" fill="white" transform="translate(0.5)"/>
</clipPath>
</defs>
</svg>
