<svg width="20" height="20" viewBox="0 0 20 20" fill="none" xmlns="http://www.w3.org/2000/svg">
<path d="M9.99984 0.367188L18.3332 3.28385V10.0001C18.3332 13.4393 16.2219 15.8432 14.2534 17.336C13.2609 18.0886 12.2733 18.6353 11.536 18.9937C11.0355 19.237 10.5249 19.4492 9.99984 19.633C9.47488 19.4488 8.96423 19.237 8.46363 18.9937C7.72637 18.6353 6.73879 18.0886 5.7463 17.336C3.77776 15.8432 1.6665 13.4393 1.6665 10.0001V3.28385L9.99984 0.367188ZM9.99984 17.8568C10.0022 17.8558 10.0046 17.8548 10.0071 17.8538C10.1976 17.776 10.474 17.6568 10.8074 17.4948C11.4764 17.1696 12.3638 16.6772 13.2463 16.008C15.0278 14.657 16.6665 12.6859 16.6665 10.0001V4.46632L9.99984 2.13299L3.33317 4.46632V10.0001C3.33317 12.6859 4.97191 14.657 6.75337 16.008C7.63588 16.6772 8.5233 17.1696 9.19229 17.4948C9.5257 17.6568 9.80204 17.776 9.9926 17.8538C9.99502 17.8548 9.99744 17.8558 9.99984 17.8568ZM15.0599 6.9527L9.16737 12.8453L5.63183 9.30973L6.81034 8.13122L9.16737 10.4882L13.8814 5.77419L15.0599 6.9527Z" fill="white"/>
</svg>
