<svg width="40" height="40" viewBox="0 0 40 40" fill="none" xmlns="http://www.w3.org/2000/svg">
<path d="M29.8989 18.0094C29.999 18.0094 30.0814 18.1013 30.0814 18.2144L30.0874 19.6559C30.0877 19.6751 30.0805 19.6937 30.0674 19.7077C30.0544 19.7218 30.0367 19.7302 30.0178 19.7302L28.8664 19.7325C28.8299 19.7325 28.7979 19.7018 28.7979 19.6617L28.7921 18.2204C28.7912 18.1665 28.8101 18.1139 28.8452 18.073C28.8612 18.0541 28.881 18.0389 28.9033 18.0283C28.9257 18.0177 28.9501 18.0122 28.9749 18.0118L29.8989 18.0094Z" fill="white"/>
<path fill-rule="evenodd" clip-rule="evenodd" d="M30.5047 3.5C33.8023 3.50004 36.5 6.19774 36.5 9.49532V30.5058C36.5 33.7716 33.8541 36.4481 30.6013 36.5H9.39869C6.14471 36.4481 3.50003 33.7704 3.5 30.5058V9.49532C3.50004 6.19771 6.19787 3.5 9.49548 3.5H30.5047ZM9.55197 15.4212C9.54104 15.4214 9.53027 15.4238 9.52025 15.4282C9.51023 15.4325 9.5011 15.4387 9.49354 15.4466C9.48597 15.4545 9.47999 15.4639 9.47606 15.4741C9.47214 15.4843 9.47041 15.4953 9.47072 15.5062L9.44466 23.9884C9.44528 24.0179 9.44017 24.0473 9.42945 24.0748C9.41871 24.1023 9.40265 24.1276 9.38219 24.1489C9.36172 24.1703 9.33723 24.1874 9.31016 24.1992C9.2831 24.2111 9.25393 24.2176 9.22438 24.2182L8.26266 24.2205C8.25453 24.2206 8.24652 24.2228 8.23951 24.2269C8.23249 24.2311 8.22659 24.237 8.22252 24.2441C8.21806 24.2512 8.21537 24.2593 8.21475 24.2677C8.21413 24.2761 8.21559 24.2846 8.21896 24.2923L8.90019 25.8917H9.59551C10.7917 25.9294 11.3198 25.1516 11.3246 24.0131C11.3316 21.2388 11.3316 18.416 11.3246 15.5439C11.3234 15.4626 11.2845 15.4212 11.2067 15.4212H9.55197ZM20.2863 16.0223C20.2593 16.0224 20.2381 16.0459 20.2381 16.0741V17.921C20.2381 17.9693 20.2747 18.0094 20.3206 18.0094L21.34 18.0105C21.3871 18.0105 21.4107 18.0353 21.4107 18.0848V23.8422C21.4107 23.8975 21.3825 23.9246 21.3283 23.9246L19.7914 23.9223C19.7679 23.9213 19.7447 23.9276 19.725 23.9404C19.7053 23.9534 19.6902 23.9722 19.6818 23.9942L18.8403 25.8917H25.1173V25.8929L25.1197 23.9953C25.1197 23.9482 25.0973 23.9246 25.0525 23.9246L23.4238 23.9212C23.372 23.9212 23.3448 23.894 23.3448 23.8386V18.0848C23.3448 18.0353 23.3684 18.0105 23.4156 18.0105H24.4432C24.495 18.0105 24.521 17.9834 24.521 17.9304L24.5186 16.1036C24.5186 16.0494 24.4939 16.0223 24.442 16.0223H20.2863ZM15.842 23.782C15.7878 23.7679 15.75 23.7879 15.7265 23.8409L14.9285 25.6677C14.9073 25.7137 14.9203 25.7455 14.9662 25.7632L15.2904 25.8917H17.8338V25.8904L18.6634 24.0049C18.687 23.953 18.6717 23.9258 18.6163 23.9246C17.7242 23.9211 16.7142 24.0189 15.842 23.782ZM26.9452 15.2857L26.9336 15.948C26.9336 15.9987 26.91 16.0223 26.8628 16.0223H25.7679C25.7149 16.0223 25.6914 16.0483 25.6914 16.1013L25.6949 17.9045C25.6949 17.9622 25.7219 17.9917 25.7773 17.9917L26.8345 17.987C26.8615 17.988 26.887 17.9995 26.9056 18.0191C26.9241 18.0387 26.9342 18.0649 26.9336 18.0919V19.643C26.9337 19.6656 26.9252 19.6874 26.9099 19.7041C26.9024 19.7122 26.8933 19.7188 26.8832 19.7232C26.8731 19.7277 26.8621 19.7301 26.851 19.7302L25.1386 19.7266C25.0821 19.7266 25.0537 19.7572 25.0537 19.8173L25.0514 21.6111C25.0514 21.6326 25.0597 21.6533 25.0747 21.6687C25.0897 21.6841 25.1101 21.693 25.1315 21.6936H26.864C26.8737 21.6938 26.8833 21.6959 26.8921 21.6998C26.901 21.7037 26.9091 21.7093 26.9158 21.7163C26.9224 21.7233 26.9277 21.7315 26.9311 21.7406C26.9346 21.7496 26.9362 21.7593 26.9358 21.769L26.9418 25.8917H28.7957L28.8028 21.7867C28.8028 21.7361 28.8263 21.7102 28.8734 21.7101C30.2087 21.696 31.1151 21.6959 31.5936 21.7077C32.0167 21.7195 32.2265 21.9471 32.2265 22.3914C32.2241 22.8852 32.2276 23.379 32.2347 23.8739C32.236 23.9581 32.2047 24.0397 32.1475 24.1015C32.0909 24.1627 32.0131 24.1981 31.9306 24.1981L30.4503 24.1992C30.4419 24.1993 30.4336 24.2015 30.4262 24.2056C30.4188 24.2097 30.4124 24.2157 30.4079 24.2229C30.4033 24.2302 30.4006 24.2386 30.4 24.2472C30.3993 24.2558 30.4008 24.2645 30.4043 24.2724L31.1021 25.8917H32.467C33.167 25.8139 33.6526 25.5003 33.9236 24.9535C34.0521 24.6895 34.1157 24.2758 34.1122 23.7101C34.1051 22.0884 34.5376 20.0247 32.349 19.7619C32.2264 19.7466 32.1003 19.7349 31.9707 19.7231C31.9259 19.7184 31.9035 19.6924 31.9047 19.6452C31.9236 18.8462 31.993 17.8279 31.6548 17.1585C31.0867 16.0295 29.9777 15.994 28.8769 16.027C28.8263 16.0282 28.8004 16.0035 28.8004 15.9505V15.2857H26.9452ZM6.38873 18.0105C6.34749 18.0105 6.32624 18.033 6.3227 18.0766C6.24138 19.479 6.13761 20.8804 6.01032 22.2829C5.99052 22.4177 5.938 22.5456 5.85721 22.6553V22.7366L6.78462 24.8852C6.81054 24.9441 6.84476 24.9488 6.88481 24.9006C7.51063 24.1404 7.81 22.8863 7.8925 21.9493C8.00655 20.6589 8.10986 19.3676 8.20245 18.0754C8.20363 18.0589 8.19784 18.0424 8.18723 18.0306C8.17547 18.0176 8.16013 18.0105 8.14483 18.0105H6.38873ZM12.6516 17.9989C12.6045 17.9989 12.5821 18.0235 12.5844 18.073C12.6551 19.1655 12.7365 20.2558 12.8308 21.346C12.9533 22.7496 13.1654 23.6713 13.7901 24.8004C13.8832 24.9665 13.9669 24.9629 14.0435 24.7861L14.8921 22.8097C14.9009 22.7903 14.9055 22.7692 14.9057 22.7479C14.9059 22.7266 14.9017 22.7055 14.8932 22.6859C14.8084 22.4715 14.7531 22.2016 14.7283 21.8764C14.6317 20.6129 14.5385 19.3459 14.4501 18.0754C14.4466 18.0259 14.4194 18 14.3711 18L12.6516 17.9989ZM17.1242 15.3223C17.0842 15.3223 17.0559 15.3424 17.0394 15.3812C16.6352 16.3441 16.2239 17.3035 15.8043 18.2593C15.657 18.5952 15.4142 19.0748 15.5214 19.419C15.698 19.9948 16.5067 19.8705 16.9548 19.8621C16.9618 19.862 16.9688 19.8638 16.975 19.8673C16.9812 19.8708 16.9863 19.876 16.9899 19.8822C16.9935 19.8881 16.9959 19.8948 16.9965 19.9018C16.9971 19.9087 16.996 19.9158 16.9934 19.9223L16.1107 21.9824C15.8608 22.5634 16.0188 23.1268 16.6623 23.1563C17.0512 23.174 17.7336 23.1739 18.7094 23.1621C18.7351 23.1626 18.7604 23.155 18.7816 23.1404C18.8027 23.1258 18.8187 23.105 18.8274 23.0809L19.4484 21.6193C19.4708 21.5651 19.4531 21.5381 19.3977 21.5369L18.4372 21.531C18.3382 21.5298 18.2804 21.4779 18.2651 21.3754C18.258 21.3283 18.2769 21.254 18.3205 21.1538C18.7565 20.1462 19.1938 19.1314 19.6323 18.1096C19.6405 18.0919 19.6381 18.073 19.6287 18.0565C19.6181 18.0412 19.6016 18.0319 19.5827 18.0319H18.0647C18.0363 18.0316 18.0084 18.024 17.9836 18.01C17.9589 17.996 17.9381 17.9759 17.9233 17.9516C17.8927 17.8998 17.8868 17.8373 17.9103 17.782L18.9358 15.3859C18.9384 15.379 18.9392 15.3714 18.9384 15.3641C18.9376 15.3567 18.935 15.3497 18.931 15.3435C18.9239 15.3306 18.911 15.3223 18.8957 15.3223H17.1242ZM33.3732 17.9529C34.778 17.5675 33.8753 15.32 32.5931 16.2015V16.2026C32.104 16.5373 32.2089 17.3576 32.2159 17.888C32.2159 17.9351 32.2371 17.9598 32.2818 17.9645C32.7803 18.0199 33.1445 18.0165 33.3732 17.9529Z" fill="white"/>
</svg>
